<?xml version="1.0" encoding="utf-8"?>
<!-- Generator: Adobe Illustrator 25.4.1, SVG Export Plug-In . SVG Version: 6.00 Build 0)  -->
<svg version="1.1" id="Capa_1" xmlns="http://www.w3.org/2000/svg" xmlns:xlink="http://www.w3.org/1999/xlink" x="0px" y="0px"
	 viewBox="0 0 424.8 478.4" style="enable-background:new 0 0 424.8 478.4;" xml:space="preserve">
<style type="text/css">
	.st0{fill:#E62F32;}
	.st1{fill:#FFFFFF;}
	.st2{font-family:'Montserrat-Bold';}
	.st3{font-size:111.4925px;}
	.st4{letter-spacing:-5;}
</style>
<path class="st0" d="M871.8,1008.5c3.9-3.7,6.9-7,8.9-9.9c2-2.9,3.4-5.7,4.1-8.4c0.7-2.7,1-5.4,1-8.1c0-5.1-1.3-9.5-3.9-13.1
	c-2.6-3.7-6.2-6.5-10.9-8.5c-4.7-2-10.1-3-16.3-3c-7.5,0-14.1,1.4-19.8,4.2c-5.7,2.8-10.2,6.6-13.4,11.3l14.1,9.1
	c2.1-2.9,4.6-5,7.6-6.3c3-1.4,6.2-2,9.7-2c4.4,0,7.7,0.9,10,2.7c2.3,1.8,3.4,4.4,3.4,7.7c0,1.3-0.2,2.7-0.7,4.2
	c-0.4,1.5-1.3,3.2-2.4,5c-1.2,1.8-3.1,3.9-5.6,6.2l-32.2,30.4v12.5h63.2v-15.8h-36L871.8,1008.5z"/>
<g>
	<text transform="matrix(1 0 0 1 825.9872 1062.3326)" class="st1 st2" style="font-size:25.7279px; letter-spacing:-1;">years</text>
</g>
<path class="st0" d="M906.2,985.2c1.4-4,3.3-6.9,5.7-8.7c2.2-1.7,4.7-2.6,7.6-2.7v-16.4c-6.5,0.1-12.4,1.8-17.6,5
	c-5.4,3.4-9.7,8.3-12.8,14.7c-1.5,3.1-2.6,6.4-3.4,10.1h19.7C905.8,986.6,906,985.9,906.2,985.2z"/>
<path class="st0" d="M919.5,1026c-2.9-0.1-5.5-1-7.7-2.7c-2.4-1.8-4.3-4.7-5.7-8.7c-0.2-0.7-0.4-1.4-0.6-2.1h-19.6
	c0.8,3.7,1.9,7.1,3.4,10.1c3.1,6.4,7.3,11.4,12.7,14.7c5.2,3.2,11,4.9,17.6,5V1026z"/>
<path class="st0" d="M217.8,221.4c16.9-15.9,29.7-30.2,38.5-42.9c8.8-12.8,14.7-24.9,17.6-36.5c2.9-11.6,4.4-23.2,4.4-34.9
	c0-22.1-5.6-41-16.8-56.9c-11.2-15.9-26.9-28.2-47.1-37C194.3,4.4,170.7,0,143.8,0c-32.4,0-61,6-85.9,18.1
	C33.1,30.2,13.8,46.6,0,67.3l61,39.3C70,94.2,81,85,93.9,79.2c12.9-5.9,27-8.8,42.2-8.8c19,0,33.4,3.9,43.2,11.6
	c9.8,7.8,14.7,18.9,14.7,33.4c0,5.5-1,11.6-2.8,18.1c-1.9,6.6-5.4,13.8-10.6,21.7c-5.2,7.9-13.3,16.9-24.3,26.9L16.6,314v54.3h273.7
	v-68.3H134.3L217.8,221.4z"/>
<g>
	<text transform="matrix(1 0 0 1 19.3934 454.726)" class="st1 st2 st3 st4">years</text>
</g>
<path class="st0" d="M367.1,120.5c6-17.2,14.3-29.8,24.8-37.8c9.6-7.2,20.6-11.1,32.9-11.8V0.1c-28.2,0.6-53.6,7.8-76.1,21.9
	c-23.5,14.7-41.9,36-55.4,63.9c-6.4,13.3-11.2,27.9-14.6,43.9h85.5C365.1,126.6,366,123.5,367.1,120.5z"/>
<path class="st0" d="M424.8,297.5c-12.6-0.6-23.8-4.5-33.4-11.8c-10.5-7.9-18.8-20.5-24.8-37.8c-1-2.9-1.9-6-2.8-9.2h-85
	c3.4,15.9,8.2,30.6,14.6,43.9c13.4,27.9,31.8,49.2,55.1,63.9c22.3,14.1,47.8,21.3,76.3,21.9V297.5z"/>
</svg>
