<?xml version="1.0" encoding="utf-8"?>
<!-- Generator: Adobe Illustrator 25.4.1, SVG Export Plug-In . SVG Version: 6.00 Build 0)  -->
<svg version="1.1" id="Capa_1" xmlns="http://www.w3.org/2000/svg" xmlns:xlink="http://www.w3.org/1999/xlink" x="0px" y="0px"
	 viewBox="0 0 497.7 497.2" style="enable-background:new 0 0 497.7 497.2;" xml:space="preserve">
<style type="text/css">
	.st0{fill:#E62F32;}
	.st1{fill:#FFFFFF;}
	.st2{fill:#010202;}
</style>
<path class="st0" d="M358.1,1570.4v-145.1c0-48.6,39.4-88,88-88h0c48.6,0,88,39.4,88,88v145.1H358.1z"/>
<g>
	<rect x="373.8" y="1492" style="fill:none;" width="144.7" height="40"/>
	<text transform="matrix(1 0 0 1 380.8503 1497.1057)"><tspan x="0" y="0" class="st1" style="font-family:'Montserrat-Medium'; font-size:6.9476px;">Our contractors come to work happy </tspan><tspan x="-2.6" y="8.3" class="st1" style="font-family:'Montserrat-Medium'; font-size:6.9476px;">and prepared to construct your dream </tspan><tspan x="-5.7" y="16.7" class="st1" style="font-family:'Montserrat-Medium'; font-size:6.9476px;">home. We have a passion for renovating </tspan><tspan x="-6.4" y="25" class="st1" style="font-family:'Montserrat-Medium'; font-size:6.9476px;">and meeting all requirements to take on </tspan><tspan x="43.1" y="33.3" class="st1" style="font-family:'Montserrat-Medium'; font-size:6.9476px;">your project.</tspan></text>
</g>
<text transform="matrix(1 0 0 1 374.9269 1475.4821)" class="st1" style="font-family:'Montserrat-SemiBold'; font-size:10.5222px;">PROFESSIONAL SERVICES</text>
<g>
	<g>
		<path class="st1" d="M1008,531.9c9.3,5.5,15.5,13.7,20.2,23.1c5.1,10.2,8.1,21,6.7,32.5c-1.6,13.9-9.9,22.1-22.8,26.4
			c-1,0.3-1.9,0.6-3.2,0.9c0,16.2,0,32.4,0,48.8c4.5-1.5,9-3,13.8-4.6c-0.7-4.3,1.8-6.4,5.6-7.9c12.3-4.9,24.4-4.9,36.6,0.1
			c3.6,1.5,5.9,3.5,5.3,6.9c8.4,3.8,16.5,7.5,24.5,11.2c1,0.5,1.8,1.3,2.9,1.7c1.3,0.4,2.7,0.8,4,0.7c3-0.4,5.6-0.1,8.1,2
			c19.1,15.8,31.3,35.8,35.3,60.3c1.7,10.4,1.2,21.1,1.5,31.7c0.1,2.5,0.4,3.9,3,5c6.1,2.8,9,9.5,7.6,16.7
			c-1.3,6.8-6.3,11.9-13,12.2c-11.4,0.5-22.3,2.5-32.5,7.7c-7,3.5-14,7.1-21.7,8.5c-5.4,1-10.8,2-16.3,2
			c-17.9,0.3-35.8,0.1-53.6,0.1c-12.3,0-23.9-3.1-34.8-8.8c-10.9-5.7-22.2-9.2-34.6-9.3c-7.8-0.1-13.4-5-14.7-12.1
			c-1.5-7.8,1.7-14.5,8.8-17.7c1.5-0.7,1.8-1.5,1.8-3c0-5.7,0-11.4,0-17c0.2-24.3,8.5-45.6,24.1-64.2c0.8-1,1.6-2.4,1.6-3.6
			c0.3-22,0.4-43.9,0.6-65.9c0-0.6-0.1-1.1-0.1-1.6c-2.9-1.2-5.8-2.1-8.6-3.5c-12-5.9-17.5-15.9-17.2-28.9
			c0.5-19.3,8.4-35.4,23.2-47.9c1.2-1,2.6-1.8,3.9-2.7c0.9,0,1.9,0,2.8,0c2.1,1.5,2.8,3.5,2.8,6c-0.1,10.2-0.1,20.5-0.1,30.7
			c0,5.1,0.2,5.3,5.4,5.3c4.4,0,8.7,0.1,13.1,0.1c4.3,0,5-0.7,5-5c0-10.4,0.1-20.8,0-31.3c0-2.7,0.9-4.7,3.4-5.8
			C1006.9,531.9,1007.4,531.9,1008,531.9z M1046.2,777.2c-21,0-42.1,0-63.1,0c-10.5,0-21,0-31.6,0c-4.7,0-7.7,3-7.6,7.4
			c0.1,4.2,2.9,6.6,7.6,6.7c3.6,0.1,7.3,0.3,10.8,0.8c9.4,1.4,18,5,26.4,9.4c10.3,5.4,21.3,8.1,32.9,8.1c16.8,0,33.5,0,50.3,0
			c10.4-0.1,20.4-2,29.6-6.8c13-6.8,26.5-11.5,41.4-11.6c3,0,5-1.9,6-4.6c1-2.7,0.3-5.3-1.9-6.8c-1.9-1.3-4.5-2.4-6.8-2.4
			C1109,777.2,1077.6,777.2,1046.2,777.2z M1104.8,680.6c0,1.8,0,2.8,0,3.8c0,14.2,0,28.5,0,42.7c0,1.1,0.3,2.5-0.3,3.3
			c-0.8,1.3-2.1,2.9-3.4,3c-1.4,0.1-3.2-1-4.3-2.1c-0.7-0.7-0.6-2.3-0.6-3.4c0-15-0.1-30,0-45c0-1.9-0.5-3.2-2.2-4
			c-6.9-3.3-13.8-6.7-20.8-10c-0.9-0.4-2-0.5-3-0.7c0,33.7,0,67,0,100.4c8.8,0,17.3,0,26,0c0-1.1,0-2,0-2.9c0-4.4,0-8.7,0-13.1
			c0-3.1,1.6-4.9,4.1-5c2.7-0.1,4.3,1.6,4.4,4.9c0.1,1.5,0,3,0,4.5c0,3.9,0,7.8,0,11.7c11.3,0,22.1,0,32.9,0
			C1140.8,734.3,1132.6,704.3,1104.8,680.6z M1011.3,545.5c0,9,0,17.1,0,25.2c0,6.9-5.1,12-11.9,12.1c-5.3,0-10.6,0-15.9-0.1
			c-8.1-0.1-12.7-4.8-12.7-13c0-7.1,0.1-14.2,0.1-21.2c0-0.8-0.1-1.6-0.2-2.7c-0.6,0.5-0.9,0.6-1.1,0.9c-9,10.9-14.5,23.1-14.2,37.5
			c0.2,9.3,4.5,16.2,13.1,20c2.6,1.2,5.4,2,8.2,2.7c3.6,0.9,4.5,1.9,4.5,5.6c-0.1,20-0.2,40-0.3,60c0,0.9,0,1.8,0,3.2
			c1.2-0.9,1.9-1.5,2.6-2.1c2.3-2.1,5.1-2.5,7.8-1.7c1.7,0.5,2.8,0.3,4.1-0.7c0.9-0.7,1.8-1.3,2.9-1.7c1.5-0.7,2.1-1.7,2.1-3.5
			c0.1-17.9,0.3-35.7,0.5-53.6c0-3.4,1.1-4.5,4.4-5.4c3.1-0.9,6.3-1.6,9.2-3c7.4-3.5,11.4-9.5,12.2-17.7c0.7-7.2-0.6-14.1-3-20.8
			C1020.9,558.3,1017.2,551.7,1011.3,545.5z M1061.5,768.7c0.1-0.7,0.1-1.1,0.1-1.4c0-35.4,0-70.7,0-106.1c0-1.8-0.8-2.4-2.2-2.9
			c-8.4-2.9-16.7-3-25.1-0.2c-2.2,0.7-2.9,1.7-2.9,4.1c0.1,34.5,0.1,69.1,0.1,103.6c0,1,0,2,0,3
			C1041.6,768.7,1051.5,768.7,1061.5,768.7z M1022.9,668c-8.8,2.5-16.5,6.2-23.9,10.8c-1.7,1.1-2.3,2.2-2.3,4.2
			c0.1,27.6,0.1,55.1,0.1,82.7c0,1,0,1.9,0,2.9c9,0,17.5,0,26.1,0C1022.9,735.1,1022.9,701.8,1022.9,668z M988,768.7
			c0-29.3,0-58.3,0-87.7c-7.1,5.7-12.7,12.1-17.5,19.2c-9.5,14-14.6,29.6-15.4,46.4c-0.4,7.3-0.1,14.6-0.1,22.1
			C966.1,768.7,976.9,768.7,988,768.7z"/>
		<path class="st1" d="M930.9,531.9c2.1,1.4,2.8,3.4,2.8,5.9c-0.1,13.1,0,26.3-0.1,39.4c0,1.7-0.5,3.5-1.3,5
			c-2.6,4.8-5.5,9.5-8.2,14.3c-0.6,1.1-1,2.4-1,3.6c-0.1,8.2,0,16.4,0,24.6c0,3.2-1.7,5-4.4,4.9c-2.8-0.2-4.1-1.9-4.1-5.2
			c0-8.7-0.1-17.3,0.1-26c0-1.8,0.6-3.6,1.4-5.2c1.4-2.9,3-5.8,4.9-8.4c3.5-4.7,4.7-9.9,4.2-15.7c-0.3-4.4-0.1-8.9-0.1-13.5
			c-11.1,0-21.8,0-33,0c0,5.4,0.2,10.8-0.1,16.1c-0.3,4.4,0.6,8.3,3.3,11.7c6.2,7.9,7.8,16.9,7.5,26.9c-0.6,18.3-0.1,36.7-0.1,55
			c0,1.1,0,2.2,0,3.4c4.1,0,7.8,0,11.8,0c0-6.7,0-13.3,0-19.9c0-3.2,1.3-5,4.1-5.1c2.8-0.1,4.3,1.6,4.3,4.9c0,6.6,0,13.2,0,20
			c1.7,0.1,3.3,0.1,4.8,0.4c6,1.1,10.8,6.5,11.4,12.6c0.6,6.1-2.9,12.1-8.6,14.2c-2.3,0.8-2.6,2-2.5,4.1c0,26.5,0,53.1,0,79.6
			c0,9.6-4.6,16.2-12.7,19c-11.4,3.9-26.2-2.6-26-19c0.3-26.3,0.2-52.7,0.2-79c0-1.1,0-2.2,0-3.3c-8.3-3.2-12.1-8.8-11-15.9
			c1.3-8.2,5.8-11.9,15.4-12.5c0-0.9,0.1-1.9,0.1-2.9c0-21.8,0-43.6-0.1-65.4c0-1.5-0.5-3.1-1.2-4.4c-2.5-4.6-5.4-9.1-7.9-13.8
			c-0.8-1.5-1.3-3.3-1.3-5c-0.1-13.1,0-26.3-0.1-39.4c0-2.7,0.9-4.7,3.3-5.9C901.4,531.9,916.2,531.9,930.9,531.9z M897.9,697.2
			c0,1.3,0,2.3,0,3.3c0,10.6,0,21.2,0,31.8c0,15.9,0,31.8,0,47.8c0,7.5,6.8,12.9,13.7,11.1c4.9-1.3,7.8-5.7,7.8-11.9
			c0.1-26.5,0.2-53.1,0.3-79.6c0-0.8-0.1-1.6-0.2-2.5C912.3,697.2,905.3,697.2,897.9,697.2z M908.4,688.5
			C908.4,688.5,908.4,688.5,908.4,688.5c5.3-0.1,10.6-0.1,15.9-0.1c3.9,0,5.9-1.8,6-5.3c0.1-3.7-1.9-5.8-5.9-5.8
			c-10.6-0.1-21.2-0.1-31.8,0c-3.6,0-5.8,2.2-5.7,5.7c0,3.5,2.1,5.5,5.9,5.5C898,688.5,903.2,688.5,908.4,688.5z M892.3,546.9
			c11.1,0,21.8,0,32.6,0c0-2.3,0-4.3,0-6.3c-11,0-21.7,0-32.6,0C892.3,542.8,892.3,544.7,892.3,546.9z"/>
		<path class="st1" d="M1164.4,614.1c-2.7,4.9-5.4,10-8.2,14.8c-2.3,3.9-6.3,5.2-10.6,3.9c-2.9-0.9-5.9-3-8.6-2.7
			c-2.7,0.3-5,3.4-7.8,4.4c-3.8,1.4-5.2,4-5.4,7.7c-0.1,1.4-0.4,2.8-0.7,4.1c-1,4.9-4.4,7.8-9.4,7.9c-4.3,0.1-8.6,0.1-12.8,0
			c-4.8-0.1-8-2.8-9.1-7.5c-0.6-2.5-0.9-5.1-1.6-7.6c-0.2-0.9-1-1.9-1.8-2.3c-2.9-1.8-5.9-3.5-9-5c-0.9-0.4-2.1-0.6-3-0.3
			c-2.8,0.8-5.4,1.9-8.2,2.8c-4.3,1.3-8.1-0.1-10.4-3.8c-2.5-4-4.9-8.1-7.1-12.3c-2-3.7-1.2-7.8,1.9-10.7c2-1.9,4.2-3.5,6.1-5.4
			c0.7-0.7,1.2-2,1.2-3.1c0.1-3.4,0-6.9-0.2-10.3c0-0.9-0.4-2-1-2.6c-2.1-2-4.4-3.8-6.5-5.7c-3.5-3.3-4.2-7.2-1.9-11.4
			c2.1-3.9,4.4-7.8,6.7-11.6c2.5-4,6.6-6,10.7-4c6.2,3,11.1,2.3,16.7-1.7c3.1-2.2,5.1-4.1,5.3-7.9c0.1-1.3,0.4-2.6,0.7-3.8
			c0.6-4,3.1-6.3,6.6-8c6.1,0,12.3,0,18.4,0c5.2,2.1,6.7,6.6,7.2,11.6c0.3,3.5,1.3,5.9,5.1,7.2c2.9,0.9,5.4,4,8.2,4.3
			c3,0.2,6.1-1.9,9.2-2.9c4.4-1.4,8.4,0,10.8,4c2.3,3.8,4.5,7.7,6.6,11.6c2.3,4.2,1.5,8.3-2,11.6c-1.9,1.7-4,3.3-5.9,5.1
			c-0.6,0.6-1,1.7-1,2.6c0,3.1,0.5,6.3,0.2,9.4c-0.2,2.3,0.6,3.6,2.2,4.9c3.3,2.7,7,5.2,8.6,9.5
			C1164.4,611.8,1164.4,613,1164.4,614.1z M1058,613.8c2.2,3.8,4.2,7.5,6.4,11c0.3,0.6,1.8,0.9,2.5,0.7c3.2-1,6.3-2.1,9.5-3.3
			c2.1-0.8,3.8-0.4,5.7,0.8c4,2.5,8.2,4.7,12.4,6.8c1.9,1,3.2,2.1,3.5,4.3c0.5,3.1,1.1,6.2,1.7,9.3c0.2,1.3,0.6,2.3,2.2,2.2
			c3.6-0.1,7.3,0.1,10.9-0.1c0.7,0,1.7-1,1.9-1.7c0.7-3.2,1.3-6.4,1.8-9.6c0.4-2.5,1.7-4,4.1-5.1c4-2,7.8-4.3,11.4-6.9
			c2-1.4,3.9-2,6.2-1.1c2.9,1.1,5.9,2.2,8.9,3.1c0.7,0.2,2.1-0.3,2.5-0.9c1.9-3,3.5-6.1,5.4-9.1c0.8-1.3,0.6-2.1-0.6-3.1
			c-2.6-2.1-5.1-4.4-7.6-6.5c-1.6-1.4-2.1-3-2-5.1c0.1-4.9-0.4-9.8-0.2-14.7c0-1.6,0.9-3.6,2-4.8c2.2-2.4,4.9-4.3,7.3-6.5
			c0.5-0.5,1-1.7,0.8-2.2c-2-3.8-4.3-7.6-6.4-11.4c-4,1.4-7.7,2.9-11.6,3.9c-1.6,0.4-3.6,0-5.1-0.7c-4.3-2.1-8.4-4.7-12.7-6.9
			c-1.9-1-3.2-2.1-3.5-4.3c-0.5-3.2-1.2-6.4-1.7-9.6c-0.2-1.4-0.8-2.1-2.4-2c-3.4,0.1-6.9,0.1-10.3,0c-1.5,0-2.2,0.5-2.4,2
			c-0.5,3.2-1.2,6.4-1.7,9.6c-0.4,2.1-1.3,3.6-3.3,4.8c-4.3,2.3-8.5,4.9-12.6,7.6c-1.7,1.1-3.3,1.6-5.2,0.8c-3-1.1-6-2-8.9-3.2
			c-1.6-0.7-2.5-0.4-3.4,1.2c-1.6,2.9-3.3,5.8-5,8.7c-0.9,1.4-0.7,2.2,0.6,3.3c2.6,2.1,5.1,4.4,7.6,6.5c1.6,1.4,2.1,3,1.9,5.2
			c-0.2,4.4-0.3,8.9,0.1,13.3c0.3,2.8-0.1,4.8-2.3,6.6C1063.5,608.9,1060.8,611.3,1058,613.8z"/>
		<path class="st1" d="M1106.8,568.8c13.6,0.1,24.2,10.9,24,24.7c-0.1,13.1-11.2,24-24.4,23.9c-13.3-0.1-24.2-11.2-24.1-24.5
			C1082.4,579.5,1093.4,568.7,1106.8,568.8z M1106.8,577.2c-8.7,0-15.7,6.9-15.9,15.7c-0.2,8.6,6.9,15.9,15.6,15.9
			c8.6,0.1,15.8-7,15.9-15.7C1122.6,584.5,1115.4,577.2,1106.8,577.2z"/>
	</g>
</g>
<path class="st0" d="M779.3,1570.4v-145.1c0-48.6,39.4-88,88-88h0c48.6,0,88,39.4,88,88v145.1H779.3z"/>
<path class="st2" d="M568.7,1570.4v-145.1c0-48.6,39.4-88,88-88h0c48.6,0,88,39.4,88,88v145.1H568.7z"/>
<rect x="633.6" y="1434.8" class="st1" width="46.2" height="1.3"/>
<g>
	<path class="st1" d="M63.4,775.5c9.7-4.4,18.4-9.5,27.8-12.5c27.1-8.6,53.2-5.2,78.1,8.1c2.7,1.5,4.6,1.6,7.4,0.1
		c19.6-10.6,39.3-21.2,59.1-31.5c15.2-8,32.7-1.2,37.7,14.5c0.9,2.9,1.2,6.1,1.3,9.2c0.1,34,0.1,68.1,0,102.1
		c0,15.7-10.9,26.9-26.7,27.2c-9.2,0.2-18.5-0.1-27.7,0.1c-2,0.1-4.4,1.1-6,2.4c-13,11.5-27.9,15.7-44.8,12.1
		c-2.8-0.6-4.4-0.1-6.2,1.9c-22.7,25.4-50.2,43.3-83.4,51.4c-8.4,2-14.2,5-18.5,12.9c-5.3,9.7-15.2,12.3-25.8,10.4
		c-9.8-1.7-16.8-7.2-20-16.9c-0.3-1-0.6-2-1-3.3c-8,2.2-15.6,1.3-22.4-3.4c-6.8-4.7-10.9-11.2-11.6-19.7c-9,0.7-16.1-3.4-22.8-8.3
		c-7.7-5.7-10.7-16.4-7.2-25.5c0.9-2.3,0.2-3.5-0.9-5.4c-4.1-7.1-9.8-9.5-18-8.8c-8.6,0.7-17.4,0.4-26-0.6
		c-12.4-1.4-21.6-12.6-21.6-25.1c0-35,0-70,0-105c0-19,20.9-31.7,37.7-22.9c17.8,9.2,35.6,18.4,53,28.4c7.3,4.2,12.8,4.8,21.1,1.1
		c22.7-10.2,45.1-7.7,66,6.1C62.8,775,63.6,775.5,63.4,775.5z M53.2,784.7C38.8,774,12.6,772.6-2.5,782c-0.9,0.6-1.6,2.3-1.6,3.5
		c0,6.6,1.2,13.4,0.1,19.8C-9,836-21.5,863.1-44.6,884.7c-0.4,0.3-0.6,0.8-0.9,1.4c1.6,2.1,3.2,4.1,4.9,6.3
		c6.7-5.8,14.2-8.2,22.4-5.5c7.8,2.5,14.6,6.9,19.3,13.9c9.7-6.7,19.5-6.9,29.2-1c9.9,6,13.8,15.2,12.4,26.9
		c6.9,0.1,12.8,2,17.9,6.2c5.2,4.4,8.1,10,9.3,16.8c35.6-8.3,65-25.9,87.9-54.1c0.8-1,1-3.3,0.4-4.6c-7.4-17.2-17.4-32.8-30.8-46
		c-7.7-7.6-16-14.4-24.5-21.9c-1.5,2.5-2.2,4.1-3.2,5.5c-5.5,7.4-10.3,15.4-16.7,21.8c-9,9-20.4,13-33.5,10.6
		c-14.2-2.5-24.3-16.5-22.3-30.6c1.2-7.9,4-15.2,8.4-21.8C41.1,800.6,47.2,792.8,53.2,784.7z M-102.9,814.1c0,16.7,0,33.4,0,50
		c0,10.2,5,15.1,15.2,15.1c6.8,0,13.6-0.5,20.3,0.1c7.2,0.7,12-2.3,16.7-7.1c13-13.7,22.2-29.6,28.5-47.3
		c3.7-10.3,5.9-20.8,5.6-31.8c-0.1-4.5-1.3-7.5-5.9-9.8c-20.1-10.3-39.9-21.2-59.9-31.8c-10.7-5.7-20.6,0.3-20.6,12.4
		C-102.9,780.8-102.9,797.5-102.9,814.1z M261.8,814.3c0-16.8,0-33.6,0-50.4c0-11.9-9.9-17.8-20.4-12.2
		c-18.3,9.7-36.6,19.4-54.8,29.2c-11.7,6.2-11.6,6.2-11,19.6c0.1,1.1,0.2,2.2,0.4,3.2c1.8,15.1,7.3,29.1,14.5,42.3
		c6,11,13.2,21.1,22.6,29.6c2.8,2.5,5.7,4,9.8,3.8c8-0.3,16-0.1,24-0.1c10,0,15-4.9,15-15C261.9,847.6,261.8,830.9,261.8,814.3z
		 M204.9,886.1c-18.8-16.7-30.1-37.8-37.7-61.2c-3.9-12.1-6.3-24.5-4.4-37.2c0.7-4.5-0.9-5.9-4.2-7.5c-15.2-7.1-31.1-10.3-47.8-7.8
		c-34.5,5.2-58.2,23.9-69.8,57.1c-3.4,9.8,3.2,18.5,13.7,18.9c8.6,0.3,16-2.8,21.2-9.2c5.5-6.8,10-14.4,14.9-21.7
		c1.7-2.5,2.8-5.3,4.7-7.5c3.7-4.4,7.3-4.2,12-1c3.5,2.4,7.4,4.5,11.5,5.8c6.7,2.1,13.4,1.2,19.8-1.7c4-1.8,7.4-0.8,9.2,2.4
		c1.8,3.4,0.7,7-3.1,9.3c-1.7,1-3.7,1.8-5.6,2.3c-2.9,0.8-5.9,1.4-8.8,2c0.1,0.4,0.1,0.5,0.2,0.6c18.8,18.1,33.7,38.8,42.8,63.5
		c0.4,1,1.9,2.1,3,2.2C187.1,896.3,196.7,893.5,204.9,886.1z M-6,936.7c-0.1,7.6,3.2,12.3,8.7,14.1c5.9,1.9,11.6,0.2,14.7-4.7
		c3.8-6.1,7.5-12.2,10.9-18.5c2.8-5.1,1.4-11.3-2.8-15.2c-4.1-3.8-11.1-5.1-15.3-1.3C1.9,918.3-2.2,928.4-6,936.7z M56.7,952.8
		c0-5.4-3.6-10-9.2-12c-5.3-1.8-10.4-0.4-13.7,4.1c-2,2.7-3.8,5.7-5.1,8.7c-3.4,7.7,1.6,16.4,10.1,17.5
		C47.3,972.3,56.8,962.7,56.7,952.8z M-22.3,927.2c5.6-0.1,13-8.7,12.9-15.1c0-5.7-8.5-12.8-15.2-12.8c-5.7,0-13.4,8.9-13.1,15.3
		C-37.5,920.3-29,927.3-22.3,927.2z"/>
	<path class="st1" d="M40.6,734.7c0,4.8-1.7,7-5,7.8c-3.4,0.8-6.3-0.3-7.3-3.5c-2.7-9-5.1-18.2-7.3-27.3c-0.8-3.3,1.3-5.7,4.5-6.7
		c3.2-1,6.5-0.3,7.5,3C36,717.2,38.4,726.6,40.6,734.7z"/>
	<path class="st1" d="M125.2,712.8c-2.2,7.9-4.5,17.1-7.3,26.1c-1,3.1-3.9,4.5-7.3,3.6c-3.5-0.9-5.8-3.3-5-6.8
		c2.2-9.3,4.6-18.6,7.4-27.7c1-3.2,4.2-4,7.5-3.1C123.9,705.8,125.4,708.2,125.2,712.8z"/>
	<path class="st1" d="M79.5,716.8c0,4.1,0,8.1,0,12.2c0,4.3-2.6,7.3-6.4,7.4c-3.7,0.1-6.6-2.9-6.6-7.2c-0.1-8.4-0.1-16.8,0-25.2
		c0-4.2,2.5-6.8,6.4-6.9c4-0.1,6.5,2.6,6.6,7C79.5,708.4,79.5,712.6,79.5,716.8z"/>
</g>
<g>
	<rect x="587.6" y="1492" style="fill:none;" width="144.7" height="35.5"/>
	<text transform="matrix(1 0 0 1 595.2903 1497.1067)"><tspan x="0" y="0" class="st1" style="font-family:'Montserrat-Medium'; font-size:6.9476px;">Transparency and honesty are at the </tspan><tspan x="-5.4" y="8.3" class="st1" style="font-family:'Montserrat-Medium'; font-size:6.9476px;">core of our work as general contractors. </tspan><tspan x="-5.7" y="16.7" class="st1" style="font-family:'Montserrat-Medium'; font-size:6.9476px;">We have many clients that can attest to </tspan><tspan x="12.5" y="25" class="st1" style="font-family:'Montserrat-Medium'; font-size:6.9476px;">this. Feel free to ask about us.</tspan></text>
</g>
<g>
	
		<text transform="matrix(1 0 0 1 625.9286 1475.4819)" class="st1" style="font-family:'Montserrat-SemiBold'; font-size:10.5222px;">INTEGRITY</text>
</g>
<rect x="841.3" y="1433.5" class="st1" width="46.2" height="1.3"/>
<g>
	<path class="st1" d="M349,243.2c3.1,0,6.6,0,10.6,0c0,3.3,0,6.5,0,9.7c-0.1,5.2,1.6,9.3,6.7,11.4c5,2.1,9.2,0.6,12.8-3.2
		c2.2-2.3,4.4-4.6,6.5-6.7c8.1,8,15.8,15.7,24.3,24.2c-2.3,2-4.9,4.2-7.4,6.5c-3.6,3.4-4.9,7.5-3,12.2c1.7,4.4,5.6,6.8,11,6.8
		c3.2,0,6.4,0,9.9,0c0,11,0,21.9,0,33.2c-3.3,0-6.6,0-9.9,0c-4.9,0-8.8,1.8-10.8,6.5c-2,4.6-1.2,8.6,2.8,12.5c2.3,2.4,4.8,4.6,7,6.6
		c-8.1,8.1-15.9,15.9-24,23.9c-2-2.1-4.5-4.7-7-7.2c-3.4-3.4-7.4-4.5-12-2.5c-4.5,1.9-6.6,5.6-6.7,10.4c-0.1,3.4,0,6.9,0,10.5
		c-11.1,0-21.8,0-33.2,0c0-3.1,0-6.2,0-9.4c0.1-5.2-1.6-9.3-6.6-11.4c-5-2.1-9.2-0.6-12.8,3.2c-2.2,2.3-4.4,4.6-7.1,7.5
		c-2.1-2.5-4-4.7-6.4-7.5c-0.6,8.8-4.3,14.2-11.5,17.1c-0.8,0.3-1.5,1.3-1.9,2.2c-6.3,13.4-16.6,20.8-31.5,20.7
		c-14.6-0.1-24.7-7.5-30.9-20.6c-0.4-0.9-1.2-1.9-2.1-2.4c-11.5-5.7-14.3-16.1-7.1-26.5c-1.1-2.1-2.4-4.2-3.1-6.4
		c-0.7-2.3-0.7-4.7-1.1-7.6c-1,0.9-1.8,1.7-2.7,2.6c-10.2,10.2-20.4,20.4-30.6,30.5c-1.3,1.3-3.1,2.4-4.8,3.1
		c-22.6,8.8-45.2,17.5-67.9,26.1c-9.2,3.5-18.2-0.7-20.4-9.8c-0.7-2.9-0.6-6.4,0.4-9.1c8.7-23.4,17.8-46.6,26.8-69.9
		c0.6-1.4,1.7-2.7,2.8-3.8c15-15,30-30,45-45c1.1-1.1,2.3-1.9,1.5-4c-5.8-14.5-6.1-29.6-3.8-45.3c-1.4,0-2.8,0-4.1,0
		c-11.6,0-23.3,0-34.9,0c-17.5,0-30.6-10.8-33.8-28c-2.9-15.1,6.2-30.4,21.5-36.5c0.4-0.2,0.8-0.4,1-0.5c0-7.3-0.7-14.6,0.1-21.7
		c2.8-22.5,22.9-42.5,45.4-45.5c24.5-3.3,43.4,5.8,56.7,26.6c1,1.5,1.8,1.9,3.6,1.5c18.4-4,36.2,3.2,46.6,18.8
		c1.1,1.7,2.4,2.3,4.4,2.7c7.2,1.2,14.4,2.8,21.7,4c1.1,0.2,2.8-0.6,3.7-1.5c15.6-15.4,31-30.9,46.5-46.4
		c5.3-5.3,10.4-10.8,15.9-15.9c13.3-12.4,28.9-16,46-9.9c17.3,6.1,27.2,19,29.5,37.1c1.8,14.3-3,26.8-13.2,37
		c-20.3,20.3-40.6,40.6-60.9,60.9c-1.9,1.9-2.4,3.5-1.7,6.3C346.2,228.3,347.4,235.6,349,243.2z M132.8,198.8
		c-0.3-1.5-0.5-2.7-0.7-4c-2.4-12.6-14.8-20.4-27.3-17.2c-12.1,3.1-19.2,16.3-15.2,28.2c3.1,9.3,11.3,15.2,21.6,15.2
		c49.2,0,98.4,0,147.6,0c0.6,0,1.2,0,1.7,0c8.1-0.6,14.1-6,15.6-14.1c1.3-6.7-2.7-14.2-9.2-17.3c-6.8-3.3-15-1.7-19.6,4.4
		c-2.2,2.9-3.3,6.7-5,10.3c-2.9,0-6.4,0-10.2,0c0.2-9.2,3.7-16.8,11.1-21.7c4.7-3.1,5.5-7,5.4-11.6c-0.2-17.1-12.8-30.9-30.4-32.7
		c-15.4-1.6-30.5,8.6-34.7,24.6c-0.7,2.6-0.4,3.8,2.3,4.9c8.3,3.5,13.6,11.9,12.9,19.9c-3.5,0-7.1,0-10.6,0
		c-2-7.3-5.6-10.8-11.2-10.9c-5.5-0.1-9.2,3.4-11.5,10.9c-3.5,0-7.1,0-10.6,0c-0.5-8.6,5.2-17.1,13.9-20.4c2-0.8,2.9-1.8,3.2-3.8
		c1-6.8,3.6-13.2,8-18.5c3.7-4.5,8.2-8.3,12.4-12.6c-7.7-15.9-31-27.9-53.7-19c-23.4,9.2-32.4,34.3-26.6,52.1
		c19.2,2.9,33.5,18.1,31.1,33.3C139.9,198.8,136.5,198.8,132.8,198.8z M260.2,176.6c0.5,0.1,0.9,0.1,1.3,0.2
		c15.5,1,26.6,13.5,26.1,29.5c-0.4,14.1-13,25.8-27.7,25.8c-8.1,0-16.1,0-24.2,0c-1.1,0-2.2,0-3.4,0c0,5.3,0,10,0,14.7
		c0,5.5,2,7.4,7.6,7.4c13.8,0,27.7,0,41.5,0c1.4,0,2.8,0,4.1,0.2c8.5,1.8,14,9.6,13.2,18.4c-0.8,8.1-8.1,14.5-16.7,14.5
		c-18,0-36,0-53.9,0c-4.1,0-6.7,2.2-6.8,5.4c-0.1,3.3,2.6,5.6,6.8,5.7c3.3,0,6.7,0,10,0c9,0.1,16.2,7.3,16.3,16.3
		c0.1,6.7,0,13.4,0,20.1c0,2.6,0,5.2,0,7.9c8.8,0,17.1,0,25.5,0c5.3-12.9,14.3-23,24-32.6c4.7-4.6,9.3-9.3,13.9-14
		c13.6-14,20.6-30.7,19.5-50.3c-1.7-31.4-16.1-55.7-42.6-72.6c-10.8-6.9-22.7-10.9-35.4-12.3C259.6,166.2,259.9,171.3,260.2,176.6z
		 M221.2,232.2c-19.4,0-38.3,0-57.1,0.1c-0.8,0-2.1,1.3-2.3,2.1c-3.9,22.3,0.4,42.4,16,59.3c6.2,6.8,13.2,12.9,19.3,19.9
		c6.1,6.9,12.5,13.8,16.8,21.8c3.4,6.3,7,8.4,13.6,7.6c5.2-0.6,10.5-0.1,15.9-0.1c0-9.4,0.1-18.2,0-27.1c0-3.8-2.3-6-6.1-6.1
		c-3.3-0.1-6.7,0-10,0c-9.8,0-17-7.1-17.1-16.6c0-9.5,7.2-16.6,17-16.6c14.6,0,29.3,0,43.9,0c3.7,0,7.4,0.1,11.1-0.1
		c3.2-0.2,5.6-2.8,5.5-5.6c-0.1-2.7-2.3-5-5.4-5.4c-0.9-0.1-1.8,0-2.8,0c-13.6,0-27.2,0-40.8,0c-10.4,0-17.4-6.9-17.4-17.3
		C221.2,242.9,221.2,237.8,221.2,232.2z M393.6,363.8c-6.4-7.2-8.3-15.3-4.6-24.1c3.7-8.8,10.8-13.1,20.1-13.6c0-3.7,0-7.2,0-10.7
		c-9-0.5-15.8-4.4-19.6-12.3c-4.4-9.2-2.7-17.7,3.6-24.8c-2.6-2.6-5-5.1-7.6-7.7c-6.2,5.5-13.6,7.6-21.9,4.9
		c-8.2-2.6-13-8.6-15.1-16.6c-2.1,7.8-4.3,15.4-6.4,23c23.1,0.1,38.1,17.7,39.3,35.7c1.4,20-11.7,37.4-30.4,41.2
		c-9.6,1.9-18.8,0.7-27.3-4.2c-10.8-6.2-17-15.7-19.4-28.5c-6.4,6.9-11.3,14-14.4,22.2c-0.2,0.7,0.2,1.8,0.6,2.5
		c2.3,3.7,3,7.7,2.4,11.9c-0.1,0.8,0.2,2,0.7,2.7c1.8,2.2,3.8,4.3,5.9,6.5c7.5-6.6,15.5-8.6,24.4-4.9c8.8,3.7,13.2,10.7,13.7,20.2
		c3.6,0,7.2,0,10.7,0c0.6-9.7,5-16.7,13.8-20.3c8.8-3.6,16.9-1.5,23.8,4.6C388.5,368.7,390.9,366.4,393.6,363.8z M393,151.7
		c12.5-10.3,19.7-22.8,14.9-39.3c-3.7-12.8-12.6-20.8-25.7-23.4c-15.6-3.1-27,4.3-36.3,15.7C361.6,120.4,377.2,136,393,151.7z
		 M178,310.9c-5.9-6.9-11.8-13.7-17.3-20.2c-13.7,13.7-27.6,27.6-41.2,41.2c6.1,6.1,12.5,12.5,18.7,18.7
		C151.4,337.6,164.7,324.2,178,310.9z M154.9,385.3c-14.2-14.2-28.3-28.3-42.5-42.5c-4.3,11.2-8.8,22.7-13.1,34.3
		c-0.3,0.7,0.4,2.1,1,2.8c3.9,4.1,8.4,7.6,11.8,12.1c4.8,6.4,9.7,7.1,16.8,3.6C137.3,391.5,146.5,388.6,154.9,385.3z M187.7,318.9
		c-14.2,14.2-27.5,27.5-40.3,40.4c6.2,6.2,12.7,12.7,19.2,19.3c11.9-11.9,24.1-24.1,36.2-36.4c0.6-0.7,0.9-2.7,0.3-3.4
		C198,332,192.7,325.4,187.7,318.9z M343.9,348.4c1-0.1,2.9-0.3,4.7-0.7c13.2-2.4,23.6-16.3,21.9-29.3
		c-1.9-15.1-14.4-26.3-28.6-25.2c-3.1,0.2-6.9,1.1-9.1,3.1c-5.4,4.9-10.1,10.7-15.1,16.1c-0.8,0.9-1.5,2.1-1.7,3.2
		C312.6,332.5,325.9,348.5,343.9,348.4z M338.9,205.1c9.4-9.4,19.1-19,28.2-28c-6.3-6.3-12.8-12.8-18.8-18.8
		c-8,8-16.4,16.3-24.4,24.4C328.9,190.2,334.1,197.9,338.9,205.1z M314.9,173.7c8.2-8.2,16.6-16.6,24.7-24.7
		c-6.1-6.1-12.6-12.6-18.5-18.5c-9.5,9.4-19.2,19-28.5,28.2C299.9,163.6,307.5,168.7,314.9,173.7z M329.5,120.9
		c15.9,15.9,31.6,31.6,46.7,46.7c2.5-2.3,5.4-4.9,7.7-6.9c-15.8-15.8-31.4-31.4-47.1-47.1C334.5,115.9,331.8,118.5,329.5,120.9z
		 M248.5,365c9.1,0,18.2,0.1,27.3,0c3.7,0,6.3-2.5,6.2-5.6c-0.1-3-2.5-5.4-6-5.4c-18.1-0.1-36.2-0.1-54.3,0.1
		c-1.8,0-4.1,1.3-5.1,2.8c-2.7,3.7,0.5,8.1,5.6,8.1C231,365.1,239.8,365,248.5,365z M248.8,387.2c8.8,0,17.5,0,26.3,0
		c4.3,0,7-2.2,7-5.5c0-3.3-2.7-5.5-7-5.5c-17.4,0-34.8,0-52.2,0c-4.4,0-7,2-7.1,5.4c-0.1,3.4,2.7,5.7,7.2,5.7
		C231.5,387.2,240.2,387.2,248.8,387.2z M229.6,398.3c5.1,7.5,11.8,11.1,20.1,10.8c7.7-0.3,13.9-3.8,18.4-10.8
		C255.1,398.3,242.7,398.3,229.6,398.3z M94,390.4c-1.7,4.4-3.6,8.9-5.1,13.6c-0.4,1.1,0.1,3,0.9,3.9c0.7,0.8,2.6,1.2,3.7,0.9
		c4.7-1.6,9.4-3.5,13.8-5.2C102.8,399.2,98.4,394.8,94,390.4z"/>
	<path class="st1" d="M343,337.3c-9.3,0-16.6-7.3-16.6-16.6c0-9.3,7.3-16.6,16.6-16.6c9.3,0,16.6,7.3,16.6,16.6
		C359.6,330,352.3,337.3,343,337.3z M342.8,326.2c2.8,0.1,5.6-2.6,5.6-5.4c0-2.7-2.4-5.3-5.2-5.5c-2.8-0.2-5.7,2.4-5.8,5.3
		C337.3,323.3,340,326.1,342.8,326.2z"/>
</g>
<g>
	<rect x="796.1" y="1492" style="fill:none;" width="144.7" height="25.6"/>
	<text transform="matrix(1 0 0 1 801.4656 1497.1067)"><tspan x="0" y="0" class="st1" style="font-family:'Montserrat-Medium'; font-size:6.9476px;">Creative excellence is the result of our </tspan><tspan x="-4" y="8.3" class="st1" style="font-family:'Montserrat-Medium'; font-size:6.9476px;">meticulous approach to all the details of </tspan><tspan x="51.5" y="16.7" class="st1" style="font-family:'Montserrat-Medium'; font-size:6.9476px;">building.</tspan></text>
</g>
<g>
	
		<text transform="matrix(1 0 0 1 803.0432 1475.4823)" class="st1" style="font-family:'Montserrat-SemiBold'; font-size:10.5222px;">CREATIVE EXCELLENCE</text>
</g>
</svg>
