<?xml version="1.0" encoding="utf-8"?>
<!-- Generator: Adobe Illustrator 25.4.1, SVG Export Plug-In . SVG Version: 6.00 Build 0)  -->
<svg version="1.1" id="Capa_1" xmlns="http://www.w3.org/2000/svg" xmlns:xlink="http://www.w3.org/1999/xlink" x="0px" y="0px"
	 viewBox="0 0 497.7 497.2" style="enable-background:new 0 0 497.7 497.2;" xml:space="preserve">
<style type="text/css">
	.st0{fill:#E62F32;}
	.st1{fill:#FFFFFF;}
	.st2{fill:#010202;}
</style>
<path class="st0" d="M358.1,1570.4v-145.1c0-48.6,39.4-88,88-88h0c48.6,0,88,39.4,88,88v145.1H358.1z"/>
<g>
	<rect x="373.8" y="1492" style="fill:none;" width="144.7" height="40"/>
	<text transform="matrix(1 0 0 1 380.8503 1497.1057)"><tspan x="0" y="0" class="st1" style="font-family:'Montserrat-Medium'; font-size:6.9476px;">Our contractors come to work happy </tspan><tspan x="-2.6" y="8.3" class="st1" style="font-family:'Montserrat-Medium'; font-size:6.9476px;">and prepared to construct your dream </tspan><tspan x="-5.7" y="16.7" class="st1" style="font-family:'Montserrat-Medium'; font-size:6.9476px;">home. We have a passion for renovating </tspan><tspan x="-6.4" y="25" class="st1" style="font-family:'Montserrat-Medium'; font-size:6.9476px;">and meeting all requirements to take on </tspan><tspan x="43.1" y="33.3" class="st1" style="font-family:'Montserrat-Medium'; font-size:6.9476px;">your project.</tspan></text>
</g>
<text transform="matrix(1 0 0 1 374.9269 1475.4821)" class="st1" style="font-family:'Montserrat-SemiBold'; font-size:10.5222px;">PROFESSIONAL SERVICES</text>
<g>
	<g>
		<path class="st1" d="M1008,531.9c9.3,5.5,15.5,13.7,20.2,23.1c5.1,10.2,8.1,21,6.7,32.5c-1.6,13.9-9.9,22.1-22.8,26.4
			c-1,0.3-1.9,0.6-3.2,0.9c0,16.2,0,32.4,0,48.8c4.5-1.5,9-3,13.8-4.6c-0.7-4.3,1.8-6.4,5.6-7.9c12.3-4.9,24.4-4.9,36.6,0.1
			c3.6,1.5,5.9,3.5,5.3,6.9c8.4,3.8,16.5,7.5,24.5,11.2c1,0.5,1.8,1.3,2.9,1.7c1.3,0.4,2.7,0.8,4,0.7c3-0.4,5.6-0.1,8.1,2
			c19.1,15.8,31.3,35.8,35.3,60.3c1.7,10.4,1.2,21.1,1.5,31.7c0.1,2.5,0.4,3.9,3,5c6.1,2.8,9,9.5,7.6,16.7
			c-1.3,6.8-6.3,11.9-13,12.2c-11.4,0.5-22.3,2.5-32.5,7.7c-7,3.5-14,7.1-21.7,8.5c-5.4,1-10.8,2-16.3,2
			c-17.9,0.3-35.8,0.1-53.6,0.1c-12.3,0-23.9-3.1-34.8-8.8c-10.9-5.7-22.2-9.2-34.6-9.3c-7.8-0.1-13.4-5-14.7-12.1
			c-1.5-7.8,1.7-14.5,8.8-17.7c1.5-0.7,1.8-1.5,1.8-3c0-5.7,0-11.4,0-17c0.2-24.3,8.5-45.6,24.1-64.2c0.8-1,1.6-2.4,1.6-3.6
			c0.3-22,0.4-43.9,0.6-65.9c0-0.6-0.1-1.1-0.1-1.6c-2.9-1.2-5.8-2.1-8.6-3.5c-12-5.9-17.5-15.9-17.2-28.9
			c0.5-19.3,8.4-35.4,23.2-47.9c1.2-1,2.6-1.8,3.9-2.7c0.9,0,1.9,0,2.8,0c2.1,1.5,2.8,3.5,2.8,6c-0.1,10.2-0.1,20.5-0.1,30.7
			c0,5.1,0.2,5.3,5.4,5.3c4.4,0,8.7,0.1,13.1,0.1c4.3,0,5-0.7,5-5c0-10.4,0.1-20.8,0-31.3c0-2.7,0.9-4.7,3.4-5.8
			C1006.9,531.9,1007.4,531.9,1008,531.9z M1046.2,777.2c-21,0-42.1,0-63.1,0c-10.5,0-21,0-31.6,0c-4.7,0-7.7,3-7.6,7.4
			c0.1,4.2,2.9,6.6,7.6,6.7c3.6,0.1,7.3,0.3,10.8,0.8c9.4,1.4,18,5,26.4,9.4c10.3,5.4,21.3,8.1,32.9,8.1c16.8,0,33.5,0,50.3,0
			c10.4-0.1,20.4-2,29.6-6.8c13-6.8,26.5-11.5,41.4-11.6c3,0,5-1.9,6-4.6c1-2.7,0.3-5.3-1.9-6.8c-1.9-1.3-4.5-2.4-6.8-2.4
			C1109,777.2,1077.6,777.2,1046.2,777.2z M1104.8,680.6c0,1.8,0,2.8,0,3.8c0,14.2,0,28.5,0,42.7c0,1.1,0.3,2.5-0.3,3.3
			c-0.8,1.3-2.1,2.9-3.4,3c-1.4,0.1-3.2-1-4.3-2.1c-0.7-0.7-0.6-2.3-0.6-3.4c0-15-0.1-30,0-45c0-1.9-0.5-3.2-2.2-4
			c-6.9-3.3-13.8-6.7-20.8-10c-0.9-0.4-2-0.5-3-0.7c0,33.7,0,67,0,100.4c8.8,0,17.3,0,26,0c0-1.1,0-2,0-2.9c0-4.4,0-8.7,0-13.1
			c0-3.1,1.6-4.9,4.1-5c2.7-0.1,4.3,1.6,4.4,4.9c0.1,1.5,0,3,0,4.5c0,3.9,0,7.8,0,11.7c11.3,0,22.1,0,32.9,0
			C1140.8,734.3,1132.6,704.3,1104.8,680.6z M1011.3,545.5c0,9,0,17.1,0,25.2c0,6.9-5.1,12-11.9,12.1c-5.3,0-10.6,0-15.9-0.1
			c-8.1-0.1-12.7-4.8-12.7-13c0-7.1,0.1-14.2,0.1-21.2c0-0.8-0.1-1.6-0.2-2.7c-0.6,0.5-0.9,0.6-1.1,0.9c-9,10.9-14.5,23.1-14.2,37.5
			c0.2,9.3,4.5,16.2,13.1,20c2.6,1.2,5.4,2,8.2,2.7c3.6,0.9,4.5,1.9,4.5,5.6c-0.1,20-0.2,40-0.3,60c0,0.9,0,1.8,0,3.2
			c1.2-0.9,1.9-1.5,2.6-2.1c2.3-2.1,5.1-2.5,7.8-1.7c1.7,0.5,2.8,0.3,4.1-0.7c0.9-0.7,1.8-1.3,2.9-1.7c1.5-0.7,2.1-1.7,2.1-3.5
			c0.1-17.9,0.3-35.7,0.5-53.6c0-3.4,1.1-4.5,4.4-5.4c3.1-0.9,6.3-1.6,9.2-3c7.4-3.5,11.4-9.5,12.2-17.7c0.7-7.2-0.6-14.1-3-20.8
			C1020.9,558.3,1017.2,551.7,1011.3,545.5z M1061.5,768.7c0.1-0.7,0.1-1.1,0.1-1.4c0-35.4,0-70.7,0-106.1c0-1.8-0.8-2.4-2.2-2.9
			c-8.4-2.9-16.7-3-25.1-0.2c-2.2,0.7-2.9,1.7-2.9,4.1c0.1,34.5,0.1,69.1,0.1,103.6c0,1,0,2,0,3
			C1041.6,768.7,1051.5,768.7,1061.5,768.7z M1022.9,668c-8.8,2.5-16.5,6.2-23.9,10.8c-1.7,1.1-2.3,2.2-2.3,4.2
			c0.1,27.6,0.1,55.1,0.1,82.7c0,1,0,1.9,0,2.9c9,0,17.5,0,26.1,0C1022.9,735.1,1022.9,701.8,1022.9,668z M988,768.7
			c0-29.3,0-58.3,0-87.7c-7.1,5.7-12.7,12.1-17.5,19.2c-9.5,14-14.6,29.6-15.4,46.4c-0.4,7.3-0.1,14.6-0.1,22.1
			C966.1,768.7,976.9,768.7,988,768.7z"/>
		<path class="st1" d="M930.9,531.9c2.1,1.4,2.8,3.4,2.8,5.9c-0.1,13.1,0,26.3-0.1,39.4c0,1.7-0.5,3.5-1.3,5
			c-2.6,4.8-5.5,9.5-8.2,14.3c-0.6,1.1-1,2.4-1,3.6c-0.1,8.2,0,16.4,0,24.6c0,3.2-1.7,5-4.4,4.9c-2.8-0.2-4.1-1.9-4.1-5.2
			c0-8.7-0.1-17.3,0.1-26c0-1.8,0.6-3.6,1.4-5.2c1.4-2.9,3-5.8,4.9-8.4c3.5-4.7,4.7-9.9,4.2-15.7c-0.3-4.4-0.1-8.9-0.1-13.5
			c-11.1,0-21.8,0-33,0c0,5.4,0.2,10.8-0.1,16.1c-0.3,4.4,0.6,8.3,3.3,11.7c6.2,7.9,7.8,16.9,7.5,26.9c-0.6,18.3-0.1,36.7-0.1,55
			c0,1.1,0,2.2,0,3.4c4.1,0,7.8,0,11.8,0c0-6.7,0-13.3,0-19.9c0-3.2,1.3-5,4.1-5.1c2.8-0.1,4.3,1.6,4.3,4.9c0,6.6,0,13.2,0,20
			c1.7,0.1,3.3,0.1,4.8,0.4c6,1.1,10.8,6.5,11.4,12.6c0.6,6.1-2.9,12.1-8.6,14.2c-2.3,0.8-2.6,2-2.5,4.1c0,26.5,0,53.1,0,79.6
			c0,9.6-4.6,16.2-12.7,19c-11.4,3.9-26.2-2.6-26-19c0.3-26.3,0.2-52.7,0.2-79c0-1.1,0-2.2,0-3.3c-8.3-3.2-12.1-8.8-11-15.9
			c1.3-8.2,5.8-11.9,15.4-12.5c0-0.9,0.1-1.9,0.1-2.9c0-21.8,0-43.6-0.1-65.4c0-1.5-0.5-3.1-1.2-4.4c-2.5-4.6-5.4-9.1-7.9-13.8
			c-0.8-1.5-1.3-3.3-1.3-5c-0.1-13.1,0-26.3-0.1-39.4c0-2.7,0.9-4.7,3.3-5.9C901.4,531.9,916.2,531.9,930.9,531.9z M897.9,697.2
			c0,1.3,0,2.3,0,3.3c0,10.6,0,21.2,0,31.8c0,15.9,0,31.8,0,47.8c0,7.5,6.8,12.9,13.7,11.1c4.9-1.3,7.8-5.7,7.8-11.9
			c0.1-26.5,0.2-53.1,0.3-79.6c0-0.8-0.1-1.6-0.2-2.5C912.3,697.2,905.3,697.2,897.9,697.2z M908.4,688.5
			C908.4,688.5,908.4,688.5,908.4,688.5c5.3-0.1,10.6-0.1,15.9-0.1c3.9,0,5.9-1.8,6-5.3c0.1-3.7-1.9-5.8-5.9-5.8
			c-10.6-0.1-21.2-0.1-31.8,0c-3.6,0-5.8,2.2-5.7,5.7c0,3.5,2.1,5.5,5.9,5.5C898,688.5,903.2,688.5,908.4,688.5z M892.3,546.9
			c11.1,0,21.8,0,32.6,0c0-2.3,0-4.3,0-6.3c-11,0-21.7,0-32.6,0C892.3,542.8,892.3,544.7,892.3,546.9z"/>
		<path class="st1" d="M1164.4,614.1c-2.7,4.9-5.4,10-8.2,14.8c-2.3,3.9-6.3,5.2-10.6,3.9c-2.9-0.9-5.9-3-8.6-2.7
			c-2.7,0.3-5,3.4-7.8,4.4c-3.8,1.4-5.2,4-5.4,7.7c-0.1,1.4-0.4,2.8-0.7,4.1c-1,4.9-4.4,7.8-9.4,7.9c-4.3,0.1-8.6,0.1-12.8,0
			c-4.8-0.1-8-2.8-9.1-7.5c-0.6-2.5-0.9-5.1-1.6-7.6c-0.2-0.9-1-1.9-1.8-2.3c-2.9-1.8-5.9-3.5-9-5c-0.9-0.4-2.1-0.6-3-0.3
			c-2.8,0.8-5.4,1.9-8.2,2.8c-4.3,1.3-8.1-0.1-10.4-3.8c-2.5-4-4.9-8.1-7.1-12.3c-2-3.7-1.2-7.8,1.9-10.7c2-1.9,4.2-3.5,6.1-5.4
			c0.7-0.7,1.2-2,1.2-3.1c0.1-3.4,0-6.9-0.2-10.3c0-0.9-0.4-2-1-2.6c-2.1-2-4.4-3.8-6.5-5.7c-3.5-3.3-4.2-7.2-1.9-11.4
			c2.1-3.9,4.4-7.8,6.7-11.6c2.5-4,6.6-6,10.7-4c6.2,3,11.1,2.3,16.7-1.7c3.1-2.2,5.1-4.1,5.3-7.9c0.1-1.3,0.4-2.6,0.7-3.8
			c0.6-4,3.1-6.3,6.6-8c6.1,0,12.3,0,18.4,0c5.2,2.1,6.7,6.6,7.2,11.6c0.3,3.5,1.3,5.9,5.1,7.2c2.9,0.9,5.4,4,8.2,4.3
			c3,0.2,6.1-1.9,9.2-2.9c4.4-1.4,8.4,0,10.8,4c2.3,3.8,4.5,7.7,6.6,11.6c2.3,4.2,1.5,8.3-2,11.6c-1.9,1.7-4,3.3-5.9,5.1
			c-0.6,0.6-1,1.7-1,2.6c0,3.1,0.5,6.3,0.2,9.4c-0.2,2.3,0.6,3.6,2.2,4.9c3.3,2.7,7,5.2,8.6,9.5
			C1164.4,611.8,1164.4,613,1164.4,614.1z M1058,613.8c2.2,3.8,4.2,7.5,6.4,11c0.3,0.6,1.8,0.9,2.5,0.7c3.2-1,6.3-2.1,9.5-3.3
			c2.1-0.8,3.8-0.4,5.7,0.8c4,2.5,8.2,4.7,12.4,6.8c1.9,1,3.2,2.1,3.5,4.3c0.5,3.1,1.1,6.2,1.7,9.3c0.2,1.3,0.6,2.3,2.2,2.2
			c3.6-0.1,7.3,0.1,10.9-0.1c0.7,0,1.7-1,1.9-1.7c0.7-3.2,1.3-6.4,1.8-9.6c0.4-2.5,1.7-4,4.1-5.1c4-2,7.8-4.3,11.4-6.9
			c2-1.4,3.9-2,6.2-1.1c2.9,1.1,5.9,2.2,8.9,3.1c0.7,0.2,2.1-0.3,2.5-0.9c1.9-3,3.5-6.1,5.4-9.1c0.8-1.3,0.6-2.1-0.6-3.1
			c-2.6-2.1-5.1-4.4-7.6-6.5c-1.6-1.4-2.1-3-2-5.1c0.1-4.9-0.4-9.8-0.2-14.7c0-1.6,0.9-3.6,2-4.8c2.2-2.4,4.9-4.3,7.3-6.5
			c0.5-0.5,1-1.7,0.8-2.2c-2-3.8-4.3-7.6-6.4-11.4c-4,1.4-7.7,2.9-11.6,3.9c-1.6,0.4-3.6,0-5.1-0.7c-4.3-2.1-8.4-4.7-12.7-6.9
			c-1.9-1-3.2-2.1-3.5-4.3c-0.5-3.2-1.2-6.4-1.7-9.6c-0.2-1.4-0.8-2.1-2.4-2c-3.4,0.1-6.9,0.1-10.3,0c-1.5,0-2.2,0.5-2.4,2
			c-0.5,3.2-1.2,6.4-1.7,9.6c-0.4,2.1-1.3,3.6-3.3,4.8c-4.3,2.3-8.5,4.9-12.6,7.6c-1.7,1.1-3.3,1.6-5.2,0.8c-3-1.1-6-2-8.9-3.2
			c-1.6-0.7-2.5-0.4-3.4,1.2c-1.6,2.9-3.3,5.8-5,8.7c-0.9,1.4-0.7,2.2,0.6,3.3c2.6,2.1,5.1,4.4,7.6,6.5c1.6,1.4,2.1,3,1.9,5.2
			c-0.2,4.4-0.3,8.9,0.1,13.3c0.3,2.8-0.1,4.8-2.3,6.6C1063.5,608.9,1060.8,611.3,1058,613.8z"/>
		<path class="st1" d="M1106.8,568.8c13.6,0.1,24.2,10.9,24,24.7c-0.1,13.1-11.2,24-24.4,23.9c-13.3-0.1-24.2-11.2-24.1-24.5
			C1082.4,579.5,1093.4,568.7,1106.8,568.8z M1106.8,577.2c-8.7,0-15.7,6.9-15.9,15.7c-0.2,8.6,6.9,15.9,15.6,15.9
			c8.6,0.1,15.8-7,15.9-15.7C1122.6,584.5,1115.4,577.2,1106.8,577.2z"/>
	</g>
</g>
<path class="st0" d="M779.3,1570.4v-145.1c0-48.6,39.4-88,88-88h0c48.6,0,88,39.4,88,88v145.1H779.3z"/>
<path class="st2" d="M568.7,1570.4v-145.1c0-48.6,39.4-88,88-88h0c48.6,0,88,39.4,88,88v145.1H568.7z"/>
<rect x="633.6" y="1434.8" class="st1" width="46.2" height="1.3"/>
<g>
	<path class="st1" d="M232.8,183.2c9.7-4.4,18.4-9.5,27.8-12.5c27.1-8.6,53.2-5.2,78.1,8.1c2.7,1.5,4.6,1.6,7.4,0.1
		c19.6-10.6,39.3-21.2,59.1-31.5c15.2-8,32.7-1.2,37.7,14.5c0.9,2.9,1.2,6.1,1.3,9.2c0.1,34,0.1,68.1,0,102.1
		c0,15.7-10.9,26.9-26.7,27.2c-9.2,0.2-18.5-0.1-27.7,0.1c-2,0.1-4.4,1.1-6,2.4c-13,11.5-27.9,15.7-44.8,12.1
		c-2.8-0.6-4.4-0.1-6.2,1.9c-22.7,25.4-50.2,43.3-83.4,51.4c-8.4,2-14.2,5-18.5,12.9c-5.3,9.7-15.2,12.3-25.8,10.4
		c-9.8-1.7-16.8-7.2-20-16.9c-0.3-1-0.6-2-1-3.3c-8,2.2-15.6,1.3-22.4-3.4c-6.8-4.7-10.9-11.2-11.6-19.7c-9,0.7-16.1-3.4-22.8-8.3
		c-7.7-5.7-10.7-16.4-7.2-25.5c0.9-2.3,0.2-3.5-0.9-5.4c-4.1-7.1-9.8-9.5-18-8.8c-8.6,0.7-17.4,0.4-26-0.6
		c-12.4-1.4-21.6-12.6-21.6-25.1c0-35,0-70,0-105c0-19,20.9-31.7,37.7-22.9c17.8,9.2,35.6,18.4,53,28.4c7.3,4.2,12.8,4.8,21.1,1.1
		c22.7-10.2,45.1-7.7,66,6.1C232.1,182.8,232.9,183.3,232.8,183.2z M222.5,192.5c-14.3-10.7-40.6-12.1-55.6-2.7
		c-0.9,0.6-1.6,2.3-1.6,3.5c0,6.6,1.2,13.4,0.1,19.8c-5.1,30.7-17.6,57.8-40.7,79.4c-0.4,0.3-0.6,0.8-0.9,1.4
		c1.6,2.1,3.2,4.1,4.9,6.3c6.7-5.8,14.2-8.2,22.4-5.5c7.8,2.5,14.6,6.9,19.3,13.9c9.7-6.7,19.5-6.9,29.2-1
		c9.9,6,13.8,15.2,12.4,26.9c6.9,0.1,12.8,2,17.9,6.2c5.2,4.4,8.1,10,9.3,16.8c35.6-8.3,65-25.9,87.9-54.1c0.8-1,1-3.3,0.4-4.6
		c-7.4-17.2-17.4-32.8-30.8-46c-7.7-7.6-16-14.4-24.5-21.9c-1.5,2.5-2.2,4.1-3.2,5.5c-5.5,7.4-10.3,15.4-16.7,21.8
		c-9,9-20.4,13-33.5,10.6c-14.2-2.5-24.3-16.5-22.3-30.6c1.2-7.9,4-15.2,8.4-21.8C210.4,208.4,216.6,200.6,222.5,192.5z M66.5,221.9
		c0,16.7,0,33.4,0,50c0,10.2,5,15.1,15.2,15.1c6.8,0,13.6-0.5,20.3,0.1c7.2,0.7,12-2.3,16.7-7.1c13-13.7,22.2-29.6,28.5-47.3
		c3.7-10.3,5.9-20.8,5.6-31.8c-0.1-4.5-1.3-7.5-5.9-9.8c-20.1-10.3-39.9-21.2-59.9-31.8c-10.7-5.7-20.6,0.3-20.6,12.4
		C66.5,188.6,66.5,205.2,66.5,221.9z M431.2,222c0-16.8,0-33.6,0-50.4c0-11.9-9.9-17.8-20.4-12.2c-18.3,9.7-36.6,19.4-54.8,29.2
		c-11.7,6.2-11.6,6.2-11,19.6c0.1,1.1,0.2,2.2,0.4,3.2c1.8,15.1,7.3,29.1,14.5,42.3c6,11,13.2,21.1,22.6,29.6c2.8,2.5,5.7,4,9.8,3.8
		c8-0.3,16-0.1,24-0.1c10,0,15-4.9,15-15C431.2,255.4,431.2,238.7,431.2,222z M374.3,293.8c-18.8-16.7-30.1-37.8-37.7-61.2
		c-3.9-12.1-6.3-24.5-4.4-37.2c0.7-4.5-0.9-5.9-4.2-7.5c-15.2-7.1-31.1-10.3-47.8-7.8c-34.5,5.2-58.2,23.9-69.8,57.1
		c-3.4,9.8,3.2,18.5,13.7,18.9c8.6,0.3,16-2.8,21.2-9.2c5.5-6.8,10-14.4,14.9-21.7c1.7-2.5,2.8-5.3,4.7-7.5c3.7-4.4,7.3-4.2,12-1
		c3.5,2.4,7.4,4.5,11.5,5.8c6.7,2.1,13.4,1.2,19.8-1.7c4-1.8,7.4-0.8,9.2,2.4c1.8,3.4,0.7,7-3.1,9.3c-1.7,1-3.7,1.8-5.6,2.3
		c-2.9,0.8-5.9,1.4-8.8,2c0.1,0.4,0.1,0.5,0.2,0.6c18.8,18.1,33.7,38.8,42.8,63.5c0.4,1,1.9,2.1,3,2.2
		C356.5,304.1,366,301.2,374.3,293.8z M163.4,344.5c-0.1,7.6,3.2,12.3,8.7,14.1c5.9,1.9,11.6,0.2,14.7-4.7
		c3.8-6.1,7.5-12.2,10.9-18.5c2.8-5.1,1.4-11.3-2.8-15.2c-4.1-3.8-11.1-5.1-15.3-1.3C171.2,326.1,167.2,336.2,163.4,344.5z
		 M226.1,360.6c0-5.4-3.6-10-9.2-12c-5.3-1.8-10.4-0.4-13.7,4.1c-2,2.7-3.8,5.6-5.1,8.7c-3.4,7.7,1.6,16.4,10.1,17.5
		C216.7,380.1,226.1,370.5,226.1,360.6z M147.1,335c5.6-0.1,13-8.7,12.9-15.1c0-5.7-8.5-12.8-15.2-12.8c-5.7,0-13.4,8.9-13.1,15.3
		C131.9,328,140.4,335.1,147.1,335z"/>
	<path class="st1" d="M210,142.4c0,4.8-1.7,7-5,7.8c-3.4,0.8-6.3-0.3-7.3-3.5c-2.7-9-5.1-18.2-7.3-27.3c-0.8-3.3,1.3-5.7,4.5-6.7
		c3.2-1,6.5-0.3,7.5,3C205.3,125,207.7,134.4,210,142.4z"/>
	<path class="st1" d="M294.6,120.6c-2.2,7.9-4.5,17.1-7.3,26.1c-1,3.1-3.9,4.5-7.3,3.6c-3.5-0.9-5.8-3.3-5-6.8
		c2.2-9.3,4.6-18.6,7.4-27.7c1-3.2,4.2-4,7.5-3.1C293.3,113.6,294.8,115.9,294.6,120.6z"/>
	<path class="st1" d="M248.8,124.6c0,4.1,0,8.1,0,12.2c0,4.3-2.6,7.3-6.4,7.4c-3.7,0.1-6.6-2.9-6.6-7.2c-0.1-8.4-0.1-16.8,0-25.2
		c0-4.2,2.5-6.8,6.4-6.9c4-0.1,6.5,2.6,6.6,7C248.9,116.2,248.8,120.4,248.8,124.6z"/>
</g>
<g>
	<rect x="587.6" y="1492" style="fill:none;" width="144.7" height="35.5"/>
	<text transform="matrix(1 0 0 1 595.2903 1497.1067)"><tspan x="0" y="0" class="st1" style="font-family:'Montserrat-Medium'; font-size:6.9476px;">Transparency and honesty are at the </tspan><tspan x="-5.4" y="8.3" class="st1" style="font-family:'Montserrat-Medium'; font-size:6.9476px;">core of our work as general contractors. </tspan><tspan x="-5.7" y="16.7" class="st1" style="font-family:'Montserrat-Medium'; font-size:6.9476px;">We have many clients that can attest to </tspan><tspan x="12.5" y="25" class="st1" style="font-family:'Montserrat-Medium'; font-size:6.9476px;">this. Feel free to ask about us.</tspan></text>
</g>
<g>
	
		<text transform="matrix(1 0 0 1 625.9286 1475.4819)" class="st1" style="font-family:'Montserrat-SemiBold'; font-size:10.5222px;">INTEGRITY</text>
</g>
<rect x="841.3" y="1433.5" class="st1" width="46.2" height="1.3"/>
<g>
	<path class="st1" d="M879.2,1393c0.5,0,1,0,1.6,0c0,0.5,0,1,0,1.4c0,0.8,0.2,1.4,1,1.7c0.7,0.3,1.4,0.1,1.9-0.5
		c0.3-0.3,0.7-0.7,1-1c1.2,1.2,2.3,2.3,3.6,3.6c-0.3,0.3-0.7,0.6-1.1,1c-0.5,0.5-0.7,1.1-0.4,1.8c0.3,0.7,0.8,1,1.6,1
		c0.5,0,1,0,1.5,0c0,1.6,0,3.2,0,4.9c-0.5,0-1,0-1.5,0c-0.7,0-1.3,0.3-1.6,1c-0.3,0.7-0.2,1.3,0.4,1.9c0.3,0.4,0.7,0.7,1,1
		c-1.2,1.2-2.4,2.3-3.6,3.5c-0.3-0.3-0.7-0.7-1-1.1c-0.5-0.5-1.1-0.7-1.8-0.4c-0.7,0.3-1,0.8-1,1.5c0,0.5,0,1,0,1.6
		c-1.6,0-3.2,0-4.9,0c0-0.5,0-0.9,0-1.4c0-0.8-0.2-1.4-1-1.7c-0.7-0.3-1.4-0.1-1.9,0.5c-0.3,0.3-0.7,0.7-1.1,1.1
		c-0.3-0.4-0.6-0.7-0.9-1.1c-0.1,1.3-0.6,2.1-1.7,2.5c-0.1,0-0.2,0.2-0.3,0.3c-0.9,2-2.5,3.1-4.7,3.1c-2.2,0-3.7-1.1-4.6-3
		c-0.1-0.1-0.2-0.3-0.3-0.3c-1.7-0.8-2.1-2.4-1-3.9c-0.2-0.3-0.4-0.6-0.5-0.9c-0.1-0.3-0.1-0.7-0.2-1.1c-0.1,0.1-0.3,0.3-0.4,0.4
		c-1.5,1.5-3,3-4.5,4.5c-0.2,0.2-0.5,0.4-0.7,0.5c-3.3,1.3-6.7,2.6-10.1,3.9c-1.4,0.5-2.7-0.1-3-1.5c-0.1-0.4-0.1-0.9,0.1-1.3
		c1.3-3.5,2.6-6.9,4-10.3c0.1-0.2,0.3-0.4,0.4-0.6c2.2-2.2,4.4-4.4,6.7-6.7c0.2-0.2,0.3-0.3,0.2-0.6c-0.9-2.2-0.9-4.4-0.6-6.7
		c-0.2,0-0.4,0-0.6,0c-1.7,0-3.4,0-5.2,0c-2.6,0-4.5-1.6-5-4.1c-0.4-2.2,0.9-4.5,3.2-5.4c0.1,0,0.1-0.1,0.1-0.1c0-1.1-0.1-2.2,0-3.2
		c0.4-3.3,3.4-6.3,6.7-6.7c3.6-0.5,6.4,0.9,8.4,3.9c0.1,0.2,0.3,0.3,0.5,0.2c2.7-0.6,5.4,0.5,6.9,2.8c0.2,0.3,0.4,0.3,0.6,0.4
		c1.1,0.2,2.1,0.4,3.2,0.6c0.2,0,0.4-0.1,0.5-0.2c2.3-2.3,4.6-4.6,6.9-6.9c0.8-0.8,1.5-1.6,2.4-2.3c2-1.8,4.3-2.4,6.8-1.5
		c2.6,0.9,4,2.8,4.4,5.5c0.3,2.1-0.4,4-2,5.5c-3,3-6,6-9,9c-0.3,0.3-0.4,0.5-0.2,0.9C878.8,1390.8,879,1391.9,879.2,1393z
		 M847.2,1386.5c0-0.2-0.1-0.4-0.1-0.6c-0.4-1.9-2.2-3-4-2.5c-1.8,0.5-2.8,2.4-2.2,4.2c0.5,1.4,1.7,2.3,3.2,2.3c7.3,0,14.6,0,21.9,0
		c0.1,0,0.2,0,0.3,0c1.2-0.1,2.1-0.9,2.3-2.1c0.2-1-0.4-2.1-1.4-2.6c-1-0.5-2.2-0.3-2.9,0.6c-0.3,0.4-0.5,1-0.7,1.5
		c-0.4,0-0.9,0-1.5,0c0-1.4,0.5-2.5,1.6-3.2c0.7-0.5,0.8-1,0.8-1.7c0-2.5-1.9-4.6-4.5-4.8c-2.3-0.2-4.5,1.3-5.1,3.6
		c-0.1,0.4-0.1,0.6,0.3,0.7c1.2,0.5,2,1.8,1.9,2.9c-0.5,0-1,0-1.6,0c-0.3-1.1-0.8-1.6-1.7-1.6c-0.8,0-1.4,0.5-1.7,1.6
		c-0.5,0-1,0-1.6,0c-0.1-1.3,0.8-2.5,2.1-3c0.3-0.1,0.4-0.3,0.5-0.6c0.2-1,0.5-2,1.2-2.7c0.6-0.7,1.2-1.2,1.8-1.9
		c-1.1-2.3-4.6-4.1-8-2.8c-3.5,1.4-4.8,5.1-3.9,7.7c2.8,0.4,5,2.7,4.6,4.9C848.3,1386.5,847.7,1386.5,847.2,1386.5z M866.1,1383.2
		c0.1,0,0.1,0,0.2,0c2.3,0.1,3.9,2,3.9,4.4c-0.1,2.1-1.9,3.8-4.1,3.8c-1.2,0-2.4,0-3.6,0c-0.2,0-0.3,0-0.5,0c0,0.8,0,1.5,0,2.2
		c0,0.8,0.3,1.1,1.1,1.1c2,0,4.1,0,6.1,0c0.2,0,0.4,0,0.6,0c1.3,0.3,2.1,1.4,1.9,2.7c-0.1,1.2-1.2,2.1-2.5,2.1c-2.7,0-5.3,0-8,0
		c-0.6,0-1,0.3-1,0.8c0,0.5,0.4,0.8,1,0.8c0.5,0,1,0,1.5,0c1.3,0,2.4,1.1,2.4,2.4c0,1,0,2,0,3c0,0.4,0,0.8,0,1.2c1.3,0,2.5,0,3.8,0
		c0.8-1.9,2.1-3.4,3.6-4.8c0.7-0.7,1.4-1.4,2.1-2.1c2-2.1,3-4.6,2.9-7.5c-0.3-4.7-2.4-8.2-6.3-10.7c-1.6-1-3.4-1.6-5.2-1.8
		C866,1381.7,866,1382.4,866.1,1383.2z M860.3,1391.4c-2.9,0-5.7,0-8.5,0c-0.1,0-0.3,0.2-0.3,0.3c-0.6,3.3,0.1,6.3,2.4,8.8
		c0.9,1,2,1.9,2.9,2.9c0.9,1,1.9,2,2.5,3.2c0.5,0.9,1,1.2,2,1.1c0.8-0.1,1.6,0,2.4,0c0-1.4,0-2.7,0-4c0-0.6-0.3-0.9-0.9-0.9
		c-0.5,0-1,0-1.5,0c-1.4,0-2.5-1.1-2.5-2.5c0-1.4,1.1-2.5,2.5-2.5c2.2,0,4.3,0,6.5,0c0.5,0,1.1,0,1.6,0c0.5,0,0.8-0.4,0.8-0.8
		c0-0.4-0.3-0.7-0.8-0.8c-0.1,0-0.3,0-0.4,0c-2,0-4,0-6,0c-1.5,0-2.6-1-2.6-2.6C860.3,1393,860.3,1392.2,860.3,1391.4z
		 M885.8,1410.9c-0.9-1.1-1.2-2.3-0.7-3.6c0.5-1.3,1.6-1.9,3-2c0-0.6,0-1.1,0-1.6c-1.3-0.1-2.3-0.6-2.9-1.8
		c-0.6-1.4-0.4-2.6,0.5-3.7c-0.4-0.4-0.7-0.8-1.1-1.1c-0.9,0.8-2,1.1-3.2,0.7c-1.2-0.4-1.9-1.3-2.2-2.5c-0.3,1.2-0.6,2.3-0.9,3.4
		c3.4,0,5.6,2.6,5.8,5.3c0.2,3-1.7,5.5-4.5,6.1c-1.4,0.3-2.8,0.1-4-0.6c-1.6-0.9-2.5-2.3-2.9-4.2c-0.9,1-1.7,2.1-2.1,3.3
		c0,0.1,0,0.3,0.1,0.4c0.3,0.5,0.4,1.1,0.4,1.8c0,0.1,0,0.3,0.1,0.4c0.3,0.3,0.6,0.6,0.9,1c1.1-1,2.3-1.3,3.6-0.7
		c1.3,0.5,1.9,1.6,2,3c0.5,0,1.1,0,1.6,0c0.1-1.4,0.7-2.5,2-3c1.3-0.5,2.5-0.2,3.5,0.7C885.1,1411.6,885.4,1411.3,885.8,1410.9z
		 M885.7,1379.5c1.8-1.5,2.9-3.4,2.2-5.8c-0.6-1.9-1.9-3.1-3.8-3.5c-2.3-0.5-4,0.6-5.4,2.3C881.1,1374.9,883.4,1377.2,885.7,1379.5z
		 M853.9,1403.1c-0.9-1-1.7-2-2.6-3c-2,2-4.1,4.1-6.1,6.1c0.9,0.9,1.9,1.9,2.8,2.8C849.9,1407,851.9,1405.1,853.9,1403.1z
		 M850.5,1414.1c-2.1-2.1-4.2-4.2-6.3-6.3c-0.6,1.7-1.3,3.4-1.9,5.1c0,0.1,0.1,0.3,0.2,0.4c0.6,0.6,1.3,1.1,1.7,1.8
		c0.7,1,1.4,1,2.5,0.5C847.9,1415,849.2,1414.6,850.5,1414.1z M855.3,1404.3c-2.1,2.1-4.1,4.1-6,6c0.9,0.9,1.9,1.9,2.8,2.9
		c1.8-1.8,3.6-3.6,5.4-5.4c0.1-0.1,0.1-0.4,0-0.5C856.9,1406.2,856.1,1405.2,855.3,1404.3z M878.5,1408.6c0.2,0,0.4,0,0.7-0.1
		c2-0.4,3.5-2.4,3.2-4.3c-0.3-2.2-2.1-3.9-4.2-3.7c-0.5,0-1,0.2-1.3,0.5c-0.8,0.7-1.5,1.6-2.2,2.4c-0.1,0.1-0.2,0.3-0.3,0.5
		C873.8,1406.3,875.8,1408.6,878.5,1408.6z M877.7,1387.4c1.4-1.4,2.8-2.8,4.2-4.2c-0.9-0.9-1.9-1.9-2.8-2.8
		c-1.2,1.2-2.4,2.4-3.6,3.6C876.2,1385.2,877,1386.3,877.7,1387.4z M874.2,1382.8c1.2-1.2,2.5-2.5,3.7-3.7c-0.9-0.9-1.9-1.9-2.7-2.7
		c-1.4,1.4-2.8,2.8-4.2,4.2C871.9,1381.3,873.1,1382,874.2,1382.8z M876.3,1374.9c2.4,2.4,4.7,4.7,6.9,6.9c0.4-0.3,0.8-0.7,1.1-1
		c-2.3-2.3-4.7-4.7-7-7C877.1,1374.2,876.7,1374.6,876.3,1374.9z M864.3,1411.1c1.3,0,2.7,0,4,0c0.5,0,0.9-0.4,0.9-0.8
		c0-0.4-0.4-0.8-0.9-0.8c-2.7,0-5.4,0-8,0c-0.3,0-0.6,0.2-0.8,0.4c-0.4,0.5,0.1,1.2,0.8,1.2C861.7,1411.1,863,1411.1,864.3,1411.1z
		 M864.4,1414.4c1.3,0,2.6,0,3.9,0c0.6,0,1-0.3,1-0.8c0-0.5-0.4-0.8-1-0.8c-2.6,0-5.2,0-7.7,0c-0.6,0-1,0.3-1.1,0.8
		c0,0.5,0.4,0.8,1.1,0.8C861.8,1414.4,863.1,1414.4,864.4,1414.4z M861.5,1416c0.8,1.1,1.7,1.6,3,1.6c1.1,0,2.1-0.6,2.7-1.6
		C865.3,1416,863.5,1416,861.5,1416z M841.5,1414.9c-0.2,0.6-0.5,1.3-0.8,2c-0.1,0.2,0,0.4,0.1,0.6c0.1,0.1,0.4,0.2,0.5,0.1
		c0.7-0.2,1.4-0.5,2-0.8C842.8,1416.1,842.1,1415.5,841.5,1414.9z"/>
	<path class="st1" d="M878.3,1407c-1.4,0-2.5-1.1-2.5-2.5c0-1.4,1.1-2.5,2.5-2.5c1.4,0,2.5,1.1,2.5,2.5
		C880.8,1405.9,879.7,1407,878.3,1407z M878.3,1405.3c0.4,0,0.8-0.4,0.8-0.8c0-0.4-0.4-0.8-0.8-0.8c-0.4,0-0.8,0.4-0.9,0.8
		C877.5,1404.9,877.9,1405.3,878.3,1405.3z"/>
</g>
<g>
	<rect x="796.1" y="1492" style="fill:none;" width="144.7" height="25.6"/>
	<text transform="matrix(1 0 0 1 801.4656 1497.1067)"><tspan x="0" y="0" class="st1" style="font-family:'Montserrat-Medium'; font-size:6.9476px;">Creative excellence is the result of our </tspan><tspan x="-4" y="8.3" class="st1" style="font-family:'Montserrat-Medium'; font-size:6.9476px;">meticulous approach to all the details of </tspan><tspan x="51.5" y="16.7" class="st1" style="font-family:'Montserrat-Medium'; font-size:6.9476px;">building.</tspan></text>
</g>
<g>
	
		<text transform="matrix(1 0 0 1 803.0432 1475.4823)" class="st1" style="font-family:'Montserrat-SemiBold'; font-size:10.5222px;">CREATIVE EXCELLENCE</text>
</g>
</svg>
